<svg id="visual" viewBox="0 0 900 600" width="900" height="600" xmlns="http://www.w3.org/2000/svg" xmlns:xlink="http://www.w3.org/1999/xlink" version="1.1"><rect x="0" y="0" width="900" height="600" fill="#231651"></rect><defs><linearGradient id="grad1_0" x1="33.3%" y1="0%" x2="100%" y2="100%"><stop offset="20%" stop-color="#231651" stop-opacity="1"></stop><stop offset="80%" stop-color="#231651" stop-opacity="1"></stop></linearGradient></defs><defs><linearGradient id="grad2_0" x1="0%" y1="0%" x2="66.7%" y2="100%"><stop offset="20%" stop-color="#231651" stop-opacity="1"></stop><stop offset="80%" stop-color="#231651" stop-opacity="1"></stop></linearGradient></defs><g transform="translate(900, 0)"><path d="M0 407C-26.3 403.9 -52.5 400.7 -78.6 395.3C-104.7 389.8 -130.7 382 -153.1 369.6C-175.4 357.1 -194.1 340.1 -220 329.3C-245.9 318.4 -279 313.9 -292.7 292.7C-306.5 271.6 -301 233.9 -309.3 206.7C-317.6 179.4 -339.6 162.6 -337.2 139.7C-334.8 116.8 -307.9 87.9 -319.7 63.6C-331.6 39.3 -382.1 19.7 -432.7 0L0 0Z" fill="#e6af2e"></path></g><g transform="translate(0, 600)"><path d="M0 -381C27.9 -401.2 55.8 -421.5 84.4 -424.4C113 -427.2 142.3 -412.8 158.4 -382.5C174.5 -352.2 177.4 -306 183.3 -274.4C189.2 -242.8 198.1 -225.7 216.4 -216.4C234.7 -207.1 262.3 -205.6 300.2 -200.6C338 -195.5 385.9 -186.8 396.3 -164.2C406.8 -141.5 379.7 -105 378.6 -75.3C377.4 -45.6 402.2 -22.8 427 0L0 0Z" fill="#e6af2e"></path></g></svg>