<svg id="visual" viewBox="0 0 900 600" width="900" height="600" xmlns="http://www.w3.org/2000/svg" xmlns:xlink="http://www.w3.org/1999/xlink" version="1.1"><path d="M0 43L82 37L164 97L245 103L327 37L409 49L491 91L573 91L655 103L736 37L818 55L900 49L900 0L818 0L736 0L655 0L573 0L491 0L409 0L327 0L245 0L164 0L82 0L0 0Z" fill="#231651"></path><path d="M0 241L82 241L164 193L245 271L327 121L409 241L491 289L573 289L655 223L736 169L818 217L900 229L900 47L818 53L736 35L655 101L573 89L491 89L409 47L327 35L245 101L164 95L82 35L0 41Z" fill="#303370"></path><path d="M0 361L82 379L164 337L245 373L327 295L409 367L491 445L573 373L655 361L736 295L818 379L900 385L900 227L818 215L736 167L655 221L573 287L491 287L409 239L327 119L245 269L164 191L82 239L0 239Z" fill="#3e518e"></path><path d="M0 535L82 547L164 523L245 547L327 541L409 517L491 547L573 493L655 559L736 499L818 541L900 511L900 383L818 377L736 293L655 359L573 371L491 443L409 365L327 293L245 371L164 335L82 377L0 359Z" fill="#4e70ab"></path><path d="M0 601L82 601L164 601L245 601L327 601L409 601L491 601L573 601L655 601L736 601L818 601L900 601L900 509L818 539L736 497L655 557L573 491L491 545L409 515L327 539L245 545L164 521L82 545L0 533Z" fill="#6290c8"></path></svg>