<svg id="visual" viewBox="0 0 960 540" width="960" height="540" xmlns="http://www.w3.org/2000/svg" xmlns:xlink="http://www.w3.org/1999/xlink" version="1.1"><rect x="0" y="0" width="960" height="540" fill="#231651"></rect><path d="M315 0L320.5 9C326 18 337 36 338.2 54C339.3 72 330.7 90 334.7 108C338.7 126 355.3 144 383.8 162C412.3 180 452.7 198 440.5 216C428.3 234 363.7 252 344.2 270C324.7 288 350.3 306 377 324C403.7 342 431.3 360 426.8 378C422.3 396 385.7 414 374.5 432C363.3 450 377.7 468 393.7 486C409.7 504 427.3 522 436.2 531L445 540L0 540L0 531C0 522 0 504 0 486C0 468 0 450 0 432C0 414 0 396 0 378C0 360 0 342 0 324C0 306 0 288 0 270C0 252 0 234 0 216C0 198 0 180 0 162C0 144 0 126 0 108C0 90 0 72 0 54C0 36 0 18 0 9L0 0Z" fill="#6290C8" stroke-linecap="round" stroke-linejoin="miter"></path></svg>